<svg width="42" height="27" viewBox="0 0 42 27" fill="none" xmlns="http://www.w3.org/2000/svg">
<path d="M39.8064 0H2.19364C0.982402 0 0 0.965252 0 2.15572V24.8443C0 26.0347 0.982402 27 2.19364 27H39.8064C41.0177 27 42 26.0347 42 24.8443V2.15572C42.0001 0.965252 41.0177 0 39.8064 0ZM38.3681 21.3961C38.9629 21.8818 39.0448 22.7491 38.5512 23.3335C38.2744 23.6613 37.8751 23.8307 37.4733 23.8307C37.1581 23.8307 36.841 23.7264 36.5798 23.5136L26.7068 15.4602L21.8941 19.3854C21.635 19.597 21.3173 19.7024 21 19.7024C20.6829 19.7024 20.365 19.597 20.1059 19.3854L15.2934 15.4602L5.42025 23.5136C4.82616 23.9992 3.94372 23.9193 3.44865 23.3335C2.95528 22.7491 3.03723 21.8818 3.63201 21.3961L13.1012 13.672L3.63201 5.94789C3.03723 5.46222 2.95528 4.59487 3.44865 4.01045C3.94372 3.42604 4.82616 3.3461 5.42025 3.83044L21 16.5385L36.5798 3.83035C37.1745 3.34601 38.0576 3.42596 38.5512 4.01037C39.0448 4.59487 38.9628 5.46213 38.3681 5.94781L28.8989 13.6719L38.3681 21.3961Z" fill="#F6F6F6"/>
</svg>
