<svg width="170" height="110" viewBox="0 0 170 110" fill="none" xmlns="http://www.w3.org/2000/svg">
<path d="M1.75282 83.842C1.1258 83.6872 0.669778 83.5066 0.384766 83.3003C0.128255 83.0939 0 82.7843 0 82.3716C0 81.5718 0.427518 81.172 1.28255 81.172H11.5857C14.9774 81.172 17.6137 81.9201 19.4948 83.4164C21.3759 84.9126 22.3164 86.8603 22.3164 89.2595C22.3164 91.994 21.2904 94.0836 19.2383 95.5283C17.2147 96.9729 14.3361 97.6952 10.6024 97.6952H9.10614C8.39361 97.6952 8.03734 97.1535 8.03734 96.07C8.03734 94.9865 8.35085 94.4448 8.97788 94.4448H10.0894C12.227 94.4448 13.8801 94.0191 15.0486 93.1678C16.2172 92.3165 16.8015 91.0008 16.8015 89.2208C16.83 87.6987 16.2884 86.512 15.1769 85.6607C14.0653 84.7836 12.8255 84.3451 11.4575 84.3451H9.4054C8.23685 84.3451 7.65257 84.8481 7.65257 85.8542V109.691H2.52236V85.9316C2.52236 85.1061 2.43685 84.5643 2.26585 84.3064C2.09484 84.0484 1.92383 83.8936 1.75282 83.842Z" fill="#F8F8F8"/>
<path d="M25.4048 99.1657V85.9316C25.4048 85.1577 25.3336 84.6417 25.1911 84.3838C25.0486 84.1258 24.8776 83.971 24.6781 83.9194C24.1935 83.7904 23.7375 83.6227 23.31 83.4164C22.911 83.21 22.7115 82.9004 22.7115 82.4876C22.7115 81.6363 23.31 81.2107 24.507 81.2107H29.0387C30.2073 81.2107 30.7916 81.6363 30.7916 82.4876V98.3531C30.7916 101.139 31.2191 103.19 32.0741 104.506C32.9577 105.796 34.2687 106.441 36.0073 106.441C37.6889 106.441 39.0427 105.873 40.0687 104.738C41.0947 103.577 41.6078 101.475 41.6078 98.4305V81.172H46.738V98.5853C46.738 102.687 45.7832 105.602 43.8736 107.331C41.9925 109.059 39.3704 109.923 36.0073 109.923C32.6726 109.923 30.0648 109.033 28.1837 107.253C26.3311 105.473 25.4048 102.777 25.4048 99.1657Z" fill="#F8F8F8"/>
<path d="M73.0406 107.872C72.3566 108.362 71.3163 108.814 69.9197 109.227C68.5517 109.614 67.1124 109.859 65.6018 109.962C60.6426 110.246 56.7094 108.943 53.8023 106.054C50.9237 103.139 49.4844 99.4237 49.4844 94.9091C49.4844 90.7557 50.6244 87.3505 52.9045 84.6933C55.2131 82.0104 58.6475 80.6689 63.2077 80.6689C66.1433 80.6689 68.5944 81.3784 70.561 82.7972C72.5561 84.2161 73.5536 85.8929 73.5536 87.8277H67.7821C67.7251 86.6152 67.2549 85.6994 66.3713 85.0803C65.4878 84.4354 64.362 84.1129 62.9939 84.1129C60.9704 84.1129 59.1463 85.0416 57.5217 86.899C55.9256 88.7306 55.1276 91.1814 55.1276 94.2513C55.1276 98.869 56.2962 102.107 58.6333 103.964C60.9989 105.796 63.4642 106.621 66.0293 106.441C66.9414 106.363 67.7394 106.221 68.4234 106.015C69.1359 105.809 69.7772 105.589 70.3472 105.357C71.0883 104.919 71.7866 104.764 72.4421 104.893C73.0976 105.022 73.5394 105.318 73.7674 105.783C73.9384 106.144 73.9384 106.531 73.7674 106.944C73.6249 107.331 73.3826 107.64 73.0406 107.872Z" fill="#F8F8F8"/>
<path d="M80.4469 84.3838C79.1929 84.3838 78.3663 84.7191 77.9673 85.3899C77.5968 86.0606 77.3973 86.7571 77.3688 87.4794C77.3403 88.1502 76.7133 88.4726 75.4877 88.4469C74.2907 88.4211 73.6921 88.0083 73.6921 87.2086L73.9059 81.172H97.1629L97.4194 87.2086C97.4194 88.0083 96.8066 88.4211 95.5811 88.4469C94.3555 88.4726 93.7142 88.0728 93.6572 87.2473C93.6287 86.6539 93.415 86.0348 93.016 85.3899C92.617 84.7191 91.7619 84.3838 90.4509 84.3838H88.2278V109.691H82.841V84.3838H80.4469Z" fill="#F8F8F8"/>
<path d="M105.339 93.3226H109.528C110.868 93.3226 111.794 93.1678 112.307 92.8582C112.82 92.5486 113.077 91.9682 113.077 91.1169C113.077 90.6267 113.647 90.3817 114.787 90.3817C115.927 90.3817 116.497 90.6267 116.497 91.1169V98.8561C116.497 99.2947 115.927 99.514 114.787 99.514C113.647 99.514 113.077 99.2947 113.077 98.8561C113.077 97.979 112.806 97.3599 112.265 96.9987C111.723 96.6375 110.797 96.457 109.486 96.457H105.339V105.125C105.339 106.028 105.88 106.479 106.963 106.479H112.136C113.248 106.479 113.975 106.247 114.317 105.783C114.687 105.293 114.944 104.751 115.086 104.158C115.257 103.306 115.927 102.945 117.095 103.074C118.264 103.177 118.848 103.59 118.848 104.312L118.549 109.691H99.952V85.9316C99.952 85.1061 99.8808 84.5772 99.7383 84.3451C99.5957 84.0871 99.3962 83.9194 99.1397 83.842C98.6552 83.6872 98.2704 83.5195 97.9854 83.339C97.7004 83.1326 97.5579 82.8101 97.5579 82.3716C97.5579 81.5718 98.0567 81.172 99.0542 81.172H117.865L118.122 86.2412C118.122 87.0667 117.523 87.4923 116.326 87.5181C115.129 87.5439 114.502 87.1312 114.445 86.2799C114.359 85.8671 114.131 85.4544 113.761 85.0416C113.419 84.603 112.649 84.3838 111.452 84.3838H106.878C105.852 84.3838 105.339 84.8481 105.339 85.7768V93.3226Z" fill="#F8F8F8"/>
<path d="M144.21 107.872C143.526 108.362 142.486 108.814 141.09 109.227C139.721 109.614 138.282 109.859 136.772 109.962C131.812 110.246 127.879 108.943 124.972 106.054C122.093 103.139 120.654 99.4237 120.654 94.9091C120.654 90.7557 121.794 87.3505 124.074 84.6933C126.383 82.0104 129.817 80.6689 134.377 80.6689C137.313 80.6689 139.764 81.3784 141.731 82.7972C143.726 84.2161 144.723 85.8929 144.723 87.8277H138.952C138.895 86.6152 138.425 85.6994 137.541 85.0803C136.658 84.4354 135.532 84.1129 134.164 84.1129C132.14 84.1129 130.316 85.0416 128.691 86.899C127.095 88.7306 126.297 91.1814 126.297 94.2513C126.297 98.869 127.466 102.107 129.803 103.964C132.169 105.796 134.634 106.621 137.199 106.441C138.111 106.363 138.909 106.221 139.593 106.015C140.306 105.809 140.947 105.589 141.517 105.357C142.258 104.919 142.956 104.764 143.612 104.893C144.267 105.022 144.709 105.318 144.937 105.783C145.108 106.144 145.108 106.531 144.937 106.944C144.795 107.331 144.552 107.64 144.21 107.872Z" fill="#F8F8F8"/>
<path d="M164.314 109.691L161.193 100.791H152.857L149.778 109.691H144.605L152.899 86.3573C153.355 85.0674 153.526 84.3451 153.412 84.1903C153.327 84.0097 153.142 83.8936 152.857 83.842C152.23 83.6872 151.773 83.5195 151.488 83.339C151.203 83.1326 151.061 82.7972 151.061 82.3329C151.061 81.5589 151.631 81.172 152.771 81.172H159.569L170 109.691H164.314ZM159.996 97.4631L156.961 88.8338L154.011 97.4631H159.996Z" fill="#F8F8F8"/>
<path d="M53.5335 0.0325311C38.4456 -0.687931 43.9951 10.7975 43.9951 10.7975C43.9951 10.7975 57.0984 48.0406 58.467 62.1405C59.8359 76.2382 74.0998 73.0648 74.0998 73.0648C74.0998 73.0648 125.873 66.3972 127.229 66.1445C128.589 65.8928 128.388 65.6272 128.472 64.865C128.556 64.1024 127.352 64.242 127.352 64.242C127.352 64.242 127.031 64.2846 126.493 64.3528C124.174 61.4247 124.703 57.3782 126.678 54.4089L130.554 53.6261L98.8112 1.63827C98.8112 1.63827 68.6195 0.752357 53.5335 0.0325311ZM124.362 64.6288C113.604 66.0259 77.2427 70.7507 75.6152 70.9702C73.707 71.2282 63.5672 71.9556 63.0493 65.528C62.5314 59.1005 75.0607 58.4853 75.0607 58.4853L124.304 54.5961C122.645 57.7754 122.461 61.5523 124.362 64.6288Z" fill="#F8F8F8"/>
</svg>
