<svg width="52" height="56" viewBox="0 0 52 56" fill="none" xmlns="http://www.w3.org/2000/svg">
<g clip-path="url(#clip0_41_474)">
<path d="M51.2738 33.8477L43.9051 21.5332C43.3325 20.5815 42.3677 20.0082 41.318 20.0082H38.0631C37.5859 20.0082 37.2997 20.5815 37.5647 21.0057L45.5166 34.3063C45.6227 34.4783 45.506 34.7076 45.3152 34.7076H41.827H38.9855H36.2606C35.932 34.7076 35.6775 34.9943 35.6563 35.3382C35.3488 40.8878 31.0972 45.2907 25.8808 45.2907C20.6643 45.2907 16.4127 40.8878 16.1052 35.3382C16.084 34.9828 15.8296 34.7076 15.5009 34.7076H12.776H10.3375H6.45694C6.26609 34.7076 6.16007 34.4783 6.25549 34.3063L14.2074 21.0057C14.4618 20.57 14.1756 20.0082 13.7091 20.0082H10.4541C9.40444 20.0082 8.43961 20.5815 7.86707 21.5332L0.508921 33.8477C0.180243 34.398 0 35.0516 0 35.7166V52.8698C0 54.5438 1.2617 55.9083 2.80967 55.9083H25.8914H48.9731C50.521 55.9083 51.7827 54.5438 51.7827 52.8698V35.7166C51.7827 35.0516 51.6131 34.4095 51.2738 33.8477Z" fill="#C44B25"/>
<path d="M26.7395 0.538849C26.3048 -0.0573833 25.4672 -0.0573833 25.0325 0.538849L18.0454 10.1474C17.4835 10.9156 17.9924 12.0507 18.8936 12.0507H21.6503V30.2014C21.6503 32.7354 23.5482 34.7878 25.8913 34.7878C28.2345 34.7878 30.1323 32.7354 30.1323 30.2014V12.0393H32.889C33.7902 12.0393 34.2991 10.9041 33.7372 10.1359L26.7395 0.538849Z" fill="#C44B25"/>
</g>
<defs>
<clipPath id="clip0_41_474">
<rect width="51.7827" height="56" fill="white"/>
</clipPath>
</defs>
</svg>
