<svg width="292" height="209" viewBox="0 0 292 209" fill="none" xmlns="http://www.w3.org/2000/svg">
<path d="M3.01073 159.3C1.93372 159.006 1.15044 158.663 0.660893 158.271C0.220298 157.878 0 157.29 0 156.506C0 154.986 0.734325 154.227 2.20298 154.227H19.9002C25.7259 154.227 30.2542 155.648 33.4852 158.491C36.7163 161.334 38.3318 165.035 38.3318 169.593C38.3318 174.789 36.5694 178.759 33.0446 181.504C29.5688 184.249 24.6244 185.621 18.2113 185.621H15.6411C14.4173 185.621 13.8053 184.592 13.8053 182.533C13.8053 180.474 14.3438 179.445 15.4208 179.445H17.3301C21.0017 179.445 23.8411 178.636 25.8482 177.019C27.8554 175.401 28.859 172.902 28.859 169.519C28.9079 166.628 27.9778 164.373 26.0685 162.755C24.1593 161.089 22.0298 160.256 19.6799 160.256H16.1552C14.148 160.256 13.1444 161.211 13.1444 163.123V208.413H4.33252V163.27C4.33252 161.702 4.18565 160.672 3.89192 160.182C3.59819 159.692 3.30446 159.398 3.01073 159.3Z" fill="#2F2E41"/>
<path d="M43.6365 188.415V163.27C43.6365 161.8 43.5141 160.819 43.2694 160.329C43.0246 159.839 42.7309 159.545 42.3882 159.447C41.5559 159.202 40.7727 158.883 40.0383 158.491C39.353 158.099 39.0103 157.511 39.0103 156.727C39.0103 155.109 40.0383 154.3 42.0945 154.3H49.8783C51.8855 154.3 52.889 155.109 52.889 156.727V186.871C52.889 192.164 53.6234 196.061 55.092 198.561C56.6096 201.012 58.8615 202.237 61.8478 202.237C64.7361 202.237 67.0615 201.159 68.8239 199.002C70.5863 196.796 71.4675 192.802 71.4675 187.018V154.227H80.2794V187.312C80.2794 195.105 78.6394 200.644 75.3594 203.928C72.1284 207.212 67.6245 208.854 61.8478 208.854C56.1201 208.854 51.6407 207.163 48.4097 203.781C45.2276 200.399 43.6365 195.277 43.6365 188.415Z" fill="#2F2E41"/>
<path d="M125.458 204.957C124.283 205.889 122.496 206.747 120.097 207.531C117.748 208.266 115.275 208.732 112.681 208.928C104.163 209.467 97.4068 206.992 92.4134 201.502C87.4689 195.963 84.9967 188.905 84.9967 180.327C84.9967 172.436 86.9549 165.966 90.8713 160.917C94.8366 155.82 100.736 153.271 108.569 153.271C113.611 153.271 117.821 154.619 121.199 157.315C124.626 160.011 126.339 163.197 126.339 166.873H116.426C116.328 164.569 115.52 162.829 114.003 161.653C112.485 160.427 110.551 159.814 108.201 159.814C104.726 159.814 101.592 161.579 98.802 165.108C96.0605 168.588 94.6898 173.245 94.6898 179.077C94.6898 187.851 96.6969 194.003 100.711 197.532C104.774 201.012 109.009 202.58 113.415 202.237C114.982 202.09 116.352 201.82 117.527 201.428C118.751 201.036 119.853 200.62 120.832 200.178C122.105 199.345 123.304 199.051 124.43 199.296C125.556 199.541 126.315 200.105 126.706 200.987C127 201.673 127 202.409 126.706 203.193C126.462 203.928 126.045 204.516 125.458 204.957Z" fill="#2F2E41"/>
<path d="M138.179 160.329C136.025 160.329 134.606 160.966 133.92 162.241C133.284 163.515 132.941 164.839 132.892 166.211C132.843 167.485 131.766 168.098 129.661 168.049C127.605 168 126.577 167.216 126.577 165.696L126.944 154.227H166.892L167.332 165.696C167.332 167.216 166.28 168 164.175 168.049C162.069 168.098 160.968 167.338 160.87 165.77C160.821 164.642 160.454 163.466 159.769 162.241C159.083 160.966 157.615 160.329 155.363 160.329H151.544V208.413H142.292V160.329H138.179Z" fill="#2F2E41"/>
<path d="M180.935 177.313H188.131C190.432 177.313 192.023 177.019 192.904 176.431C193.785 175.842 194.226 174.74 194.226 173.122C194.226 172.191 195.205 171.725 197.163 171.725C199.122 171.725 200.101 172.191 200.101 173.122V187.827C200.101 188.66 199.122 189.077 197.163 189.077C195.205 189.077 194.226 188.66 194.226 187.827C194.226 186.16 193.761 184.984 192.831 184.298C191.901 183.611 190.31 183.268 188.058 183.268H180.935V199.737C180.935 201.453 181.865 202.311 183.725 202.311H192.611C194.52 202.311 195.768 201.869 196.356 200.987C196.992 200.056 197.433 199.027 197.677 197.899C197.971 196.282 199.122 195.596 201.129 195.841C203.136 196.037 204.139 196.821 204.139 198.193L203.625 208.413H171.682V163.27C171.682 161.702 171.56 160.697 171.315 160.256C171.07 159.765 170.728 159.447 170.287 159.3C169.455 159.006 168.794 158.687 168.304 158.344C167.815 157.952 167.57 157.339 167.57 156.506C167.57 154.986 168.427 154.227 170.14 154.227H202.451L202.891 163.858C202.891 165.427 201.863 166.235 199.807 166.284C197.751 166.334 196.674 165.549 196.576 163.932C196.429 163.148 196.037 162.363 195.401 161.579C194.814 160.746 193.492 160.329 191.436 160.329H183.578C181.816 160.329 180.935 161.211 180.935 162.976V177.313Z" fill="#2F2E41"/>
<path d="M247.703 204.957C246.528 205.889 244.741 206.747 242.342 207.531C239.992 208.266 237.52 208.732 234.925 208.928C226.407 209.467 219.651 206.992 214.658 201.502C209.713 195.963 207.241 188.905 207.241 180.327C207.241 172.436 209.199 165.966 213.116 160.917C217.081 155.82 222.98 153.271 230.813 153.271C235.855 153.271 240.066 154.619 243.443 157.315C246.87 160.011 248.584 163.197 248.584 166.873H238.67C238.572 164.569 237.765 162.829 236.247 161.653C234.729 160.427 232.796 159.814 230.446 159.814C226.97 159.814 223.837 161.579 221.047 165.108C218.305 168.588 216.934 173.245 216.934 179.077C216.934 187.851 218.941 194.003 222.956 197.532C227.019 201.012 231.254 202.58 235.66 202.237C237.226 202.09 238.597 201.82 239.772 201.428C240.996 201.036 242.097 200.62 243.076 200.178C244.349 199.345 245.549 199.051 246.674 199.296C247.8 199.541 248.559 200.105 248.951 200.987C249.245 201.673 249.245 202.409 248.951 203.193C248.706 203.928 248.29 204.516 247.703 204.957Z" fill="#2F2E41"/>
<path d="M282.233 208.413L276.873 191.503H262.554L257.266 208.413H248.381L262.627 164.079C263.41 161.628 263.704 160.256 263.508 159.962C263.361 159.618 263.043 159.398 262.554 159.3C261.477 159.006 260.693 158.687 260.204 158.344C259.714 157.952 259.469 157.315 259.469 156.432C259.469 154.962 260.448 154.227 262.407 154.227H274.082L292 208.413H282.233ZM274.817 185.18L269.603 168.784L264.536 185.18H274.817Z" fill="#2F2E41"/>
<path d="M91.9516 0.0618091C66.0359 -1.30707 75.5681 20.5153 75.5681 20.5153C75.5681 20.5153 98.0748 91.2771 100.426 118.067C102.777 144.853 127.277 138.823 127.277 138.823C127.277 138.823 216.205 126.155 218.535 125.675C220.87 125.196 220.525 124.692 220.669 123.243C220.814 121.795 218.746 122.06 218.746 122.06C218.746 122.06 218.195 122.141 217.27 122.27C213.287 116.707 214.195 109.019 217.587 103.377L224.245 101.89L169.723 3.1127C169.723 3.1127 117.864 1.42948 91.9516 0.0618091ZM213.61 122.795C195.131 125.449 132.676 134.426 129.88 134.843C126.603 135.334 109.186 136.716 108.296 124.503C107.407 112.291 128.928 111.122 128.928 111.122L213.511 103.733C210.66 109.773 210.344 116.949 213.61 122.795Z" fill="#2F2E41"/>
</svg>
