<svg width="36" height="36" viewBox="0 0 36 36" fill="none" xmlns="http://www.w3.org/2000/svg">
<path d="M18.0003 6.54535C11.6839 6.54535 6.54565 11.6835 6.54565 17.9999C6.54565 24.3164 11.6839 29.4545 18.0003 29.4545C24.3166 29.4545 29.4548 24.3163 29.4548 17.9999C29.4548 11.6836 24.3166 6.54535 18.0003 6.54535ZM18.0003 27C13.0379 27 9.0002 22.9623 9.0002 17.9999C9.0002 13.0376 13.0379 8.9999 18.0003 8.9999C22.9626 8.9999 27.0003 13.0376 27.0003 17.9999C27.0003 22.9623 22.9626 27 18.0003 27Z" fill="#C44B25"/>
<path d="M18.0001 10.6364C13.9403 10.6364 10.6365 13.9402 10.6365 18C10.6365 22.0598 13.9403 25.3637 18.0001 25.3637C22.0599 25.3637 25.3638 22.0598 25.3638 18C25.3638 13.9402 22.0599 10.6364 18.0001 10.6364Z" fill="#C44B25"/>
<path d="M28.5685 0H7.43153C3.33406 0 0 3.33406 0 7.43153V28.5685C0 32.6659 3.33406 36 7.43153 36H28.5685C32.6659 36 36 32.6659 36 28.5685V7.43153C36 3.33406 32.6659 0 28.5685 0ZM18 31.0909C10.782 31.0909 4.9091 25.218 4.9091 18C4.9091 10.782 10.782 4.9091 18 4.9091C25.218 4.9091 31.0909 10.782 31.0909 18C31.0909 25.218 25.218 31.0909 18 31.0909ZM31.0909 7.36365C29.7351 7.36365 28.6364 6.26486 28.6364 4.9091C28.6364 3.55334 29.7351 2.45455 31.0909 2.45455C32.4467 2.45455 33.5454 3.55334 33.5454 4.9091C33.5454 6.26486 32.4467 7.36365 31.0909 7.36365Z" fill="#C44B25"/>
</svg>
